<?xml version="1.0" encoding="utf-8"?>
<!-- Generator: Adobe Illustrator 22.1.0, SVG Export Plug-In . SVG Version: 6.00 Build 0)  -->
<svg version="1.0" id="Layer_1" xmlns="http://www.w3.org/2000/svg" xmlns:xlink="http://www.w3.org/1999/xlink" x="0px" y="0px"
	 viewBox="0 0 303 76" style="enable-background:new 0 0 303 76;" xml:space="preserve">
<style type="text/css">
	.st0{fill:#FFFFFF;}
	.st1{fill:url(#SVGID_1_);}
	.st2{fill:url(#SVGID_2_);}
</style>
<g>
	<path class="st0" d="M93.2,15.6c-0.8,0-1.5-0.3-2.1-0.9c-0.6-0.6-0.9-1.3-0.9-2.2c0-0.8,0.3-1.5,0.9-2.1c0.6-0.5,1.3-0.8,2.1-0.8
		c0.8,0,1.5,0.3,2.1,0.8c0.6,0.5,0.9,1.2,0.9,2.1c0,0.8-0.3,1.6-0.9,2.2C94.8,15.3,94.1,15.6,93.2,15.6z M91.5,66V25.8h3.6V66H91.5z
		"/>
	<path class="st0" d="M116.7,46.3L129.8,66h-4.6l-10.6-17h-0.1l-1.4,2.3c-0.2,0.3-0.4,0.7-0.7,1.1L103.5,66h-4.4l13.4-19.6
		L99.3,25.8h4.3l8.9,14.4c1.2,1.9,1.9,3,2.1,3.5h0.2l2-3.3l9.3-14.6h4.2L116.7,46.3z"/>
	<path class="st0" d="M134,64v-4.4c4,2.6,8.1,3.9,12.2,3.9c4.4,0,7.7-0.9,10-2.7c2.3-1.8,3.4-4.4,3.4-7.6c0-2.9-0.8-5.2-2.3-6.9
		c-1.5-1.7-4.8-4.1-10-7c-5.7-3.3-9.3-6.1-10.8-8.3c-1.5-2.2-2.3-4.8-2.3-7.8c0-4,1.5-7.3,4.6-10.1c3.1-2.8,7.2-4.2,12.3-4.2
		c3.4,0,6.7,0.6,10.1,1.7v4.1c-3.3-1.5-6.8-2.2-10.6-2.2c-3.8,0-6.8,1-9.1,2.9c-2.2,1.9-3.4,4.4-3.4,7.4c0,2.9,0.8,5.1,2.3,6.9
		c1.5,1.7,4.8,4,9.9,7c5.3,3,8.8,5.6,10.5,7.9c1.7,2.3,2.6,5,2.6,8c0,4.3-1.5,7.8-4.5,10.6c-3,2.7-7.2,4.1-12.7,4.1
		c-1.9,0-4.2-0.3-6.7-0.9C137.3,65.4,135.4,64.8,134,64z"/>
	<path class="st0" d="M197,66V42.6c0-9.6-3.5-14.5-10.4-14.5c-3.9,0-7.1,1.4-9.6,4.3c-2.5,2.8-3.7,6.3-3.7,10.5V66h-3.6V25.8h3.6
		v7.3h0.2c2.9-5.5,7.5-8.3,13.7-8.3c4.3,0,7.7,1.4,10,4.3c2.3,2.9,3.5,7,3.5,12.4V66H197z"/>
	<path class="st0" d="M232.1,66v-8h-0.1c-1.3,2.7-3.1,4.9-5.6,6.6c-2.4,1.6-5.2,2.5-8.1,2.5c-3.8,0-6.9-1.1-9.1-3.2
		c-2.2-2.1-3.3-4.9-3.3-8.1c0-7,4.7-11.3,14-12.7l12.4-1.9c0-8.6-3.2-12.9-9.7-12.9c-4.4,0-8.7,1.8-12.9,5.3v-4.4
		c1.5-1.2,3.5-2.2,6.1-3c2.6-0.8,5-1.3,7.2-1.3c4.1,0,7.3,1.3,9.6,3.9c2.3,2.6,3.4,6.3,3.4,11.2V66H232.1z M221,46
		c-4.2,0.6-7.2,1.6-8.9,2.9s-2.6,3.5-2.6,6.6c0,2.4,0.8,4.3,2.4,5.9c1.6,1.5,3.8,2.3,6.6,2.3c3.9,0,7.1-1.4,9.6-4.3
		c2.6-2.9,3.9-6.6,3.9-11.1v-3.9L221,46z"/>
	<path class="st0" d="M270.1,64.2c-3,1.8-6.5,2.8-10.7,2.8c-5.5,0-9.9-1.9-13.2-5.6c-3.4-3.8-5-8.7-5-14.8c0-6.4,1.9-11.6,5.7-15.7
		c3.8-4.1,8.6-6.1,14.5-6.1c3.1,0,6,0.6,8.9,1.9v4.1c-2.9-1.8-6-2.7-9.4-2.7c-4.7,0-8.5,1.7-11.4,5.1c-2.9,3.4-4.4,7.8-4.4,13.2
		c0,5.2,1.3,9.4,4,12.6c2.7,3.2,6.2,4.7,10.6,4.7c4,0,7.5-1.1,10.5-3.2V64.2z"/>
	<path class="st0" d="M298.1,66l-19.2-19.8h-0.2V66h-3.6V6.5h3.6v38.3h0.2l18.2-19h4.7l-19.1,19.5L303.3,66H298.1z"/>
</g>
<linearGradient id="SVGID_1_" gradientUnits="userSpaceOnUse" x1="23.4191" y1="27.6625" x2="37.3151" y2="41.2544">
	<stop  offset="0" style="stop-color:#FFFFFF;stop-opacity:0.1"/>
	<stop  offset="0.6" style="stop-color:#FFFFFF;stop-opacity:0.7"/>
</linearGradient>
<polygon class="st1" points="32.4,43.2 18.1,28.9 24.7,22.3 39,36.6 "/>
<path class="st0" d="M20.3,50.5V31c5.7-2.1,9.8-7.6,9.8-14c0-8.2-6.7-14.9-14.9-14.9S0.3,8.8,0.3,17c0,6.8,4.5,12.5,10.7,14.3v41.6
	l25.6-25.6l25.6,25.6V8.6L20.3,50.5z M15.2,11.5c3.1,0,5.6,2.5,5.6,5.6s-2.5,5.6-5.6,5.6S9.6,20.1,9.6,17S12.2,11.5,15.2,11.5z
	 M52.9,50.5l-9.7-9.7l9.7-9.7V50.5z"/>
<g>
	<linearGradient id="SVGID_2_" gradientUnits="userSpaceOnUse" x1="41.3497" y1="45.5658" x2="46.6216" y2="50.6051">
		<stop  offset="0" style="stop-color:#000000;stop-opacity:0.4"/>
		<stop  offset="1" style="stop-color:#000000;stop-opacity:0"/>
	</linearGradient>
	<polygon class="st2" points="36.6,47.3 43.3,54.1 49.9,47.5 43.2,40.8 	"/>
</g>
</svg>
